<?xml version="1.0" encoding="UTF-8" standalone="no"?>
<!DOCTYPE svg PUBLIC "-//W3C//DTD SVG 1.1//EN" "http://www.w3.org/Graphics/SVG/1.1/DTD/svg11.dtd">
<svg width="100%" height="100%" viewBox="0 0 512 512" version="1.1" xmlns="http://www.w3.org/2000/svg" xmlns:xlink="http://www.w3.org/1999/xlink" xml:space="preserve" xmlns:serif="http://www.serif.com/" style="fill-rule:evenodd;clip-rule:evenodd;stroke-linejoin:round;stroke-miterlimit:2;">
    <g transform="matrix(1.03739,0,0,1.03739,-66.9676,-40.8272)">
        <path d="M311.327,54.779C439.012,54.779 542.676,158.443 542.676,286.128C542.676,413.814 439.012,517.478 311.327,517.478C183.641,517.478 79.977,413.814 79.977,286.128C79.977,158.443 183.641,54.779 311.327,54.779ZM311.327,77.972C196.442,77.972 103.17,171.244 103.17,286.128C103.17,401.013 196.442,494.285 311.327,494.285C426.211,494.285 519.483,401.013 519.483,286.128C519.483,171.244 426.211,77.972 311.327,77.972Z" style="fill:white;"/>
    </g>
    <g transform="matrix(1.22346,0,0,1.22346,-59.8876,-156.522)">
        <circle cx="258.191" cy="282.294" r="90.568" style="fill:white;"/>
    </g>
    <g transform="matrix(0.722785,-0.722785,0.715841,0.715841,-111.711,436.798)">
        <path d="M403.173,107.732L403.173,342.551C340.782,365.486 277.982,365.043 214.023,298.318C160.29,233.548 147.629,170.102 168.354,107.732L403.173,107.732Z" style="fill:white;"/>
    </g>
</svg>
